<svg width="16" height="16" viewBox="0 0 16 16" fill="none" xmlns="http://www.w3.org/2000/svg">
<g id="Group 1">
<path id="Vector" d="M13.2692 8.56172V7.22414H12.1154V8.77586C12.1154 8.91303 12.1762 9.04457 12.2844 9.14155L13.8462 10.5417V11.3621H1.15385V10.5417L2.71558 9.14155C2.82378 9.04457 2.88458 8.91303 2.88462 8.77586V6.7069C2.88301 5.98007 3.09537 5.26573 3.50024 4.63603C3.90512 4.00633 4.48817 3.48357 5.19052 3.12055C5.89286 2.75754 6.68962 2.56712 7.50031 2.56854C8.31101 2.56996 9.10693 2.76315 9.80769 3.12862V1.97259C9.25852 1.75458 8.67441 1.61563 8.07692 1.56086V0.5H6.92308V1.56034C5.50072 1.69014 4.18255 2.28816 3.22348 3.23878C2.26441 4.1894 1.73256 5.42509 1.73077 6.7069V8.56172L0.169038 9.9619C0.0608369 10.0589 3.26754e-05 10.1904 0 10.3276V11.8793C0 12.0165 0.0607828 12.1481 0.168977 12.2451C0.277171 12.3421 0.423914 12.3966 0.576923 12.3966H4.61538V12.9138C4.61538 13.5997 4.9193 14.2575 5.46027 14.7425C6.00124 15.2275 6.73495 15.5 7.5 15.5C8.26505 15.5 8.99876 15.2275 9.53973 14.7425C10.0807 14.2575 10.3846 13.5997 10.3846 12.9138V12.3966H14.4231C14.5761 12.3966 14.7228 12.3421 14.831 12.2451C14.9392 12.1481 15 12.0165 15 11.8793V10.3276C15 10.1904 14.9392 10.0589 14.831 9.9619L13.2692 8.56172ZM9.23077 12.9138C9.23077 13.3253 9.04842 13.72 8.72384 14.011C8.39926 14.302 7.95903 14.4655 7.5 14.4655C7.04097 14.4655 6.60074 14.302 6.27616 14.011C5.95158 13.72 5.76923 13.3253 5.76923 12.9138V12.3966H9.23077V12.9138Z" fill="#0D294E"/>
<path id="Vector_2" d="M12.5 7.5C14.433 7.5 16 5.933 16 4C16 2.067 14.433 0.5 12.5 0.5C10.567 0.5 9 2.067 9 4C9 5.933 10.567 7.5 12.5 7.5Z" fill="#0D294E"/>
</g>
</svg>
