<svg width="15" height="16" viewBox="0 0 15 16" fill="none" xmlns="http://www.w3.org/2000/svg">
<path d="M12.54 10.28C12.8025 9.57789 12.945 8.82627 12.945 8.00031C12.945 7.40562 12.8625 6.83571 12.72 6.3071C12.2325 6.43099 11.7225 6.49707 11.19 6.49707C10.0995 6.49836 9.02466 6.21089 8.05615 5.65891C7.08764 5.10692 6.25382 4.3066 5.625 3.3254C4.95232 5.11787 3.68334 6.55968 2.0775 7.35607C2.0475 7.56256 2.0475 7.78556 2.0475 8.00031C2.0475 8.78886 2.18853 9.56969 2.46255 10.2982C2.73656 11.0267 3.13819 11.6887 3.6445 12.2463C4.66704 13.3724 6.05391 14.005 7.5 14.005C8.2875 14.005 9.045 13.815 9.7275 13.4764C10.155 14.3767 10.35 14.8227 10.335 14.8227C9.105 15.277 8.1525 15.5 7.5 15.5C5.685 15.5 3.9525 14.7153 2.6775 13.303C1.902 12.4515 1.32553 11.4057 0.9975 10.2552H0V6.49707H0.8175C1.06518 5.16936 1.63462 3.94025 2.46539 2.94016C3.29616 1.94008 4.35728 1.20633 5.53615 0.816767C6.71501 0.427206 7.96765 0.396366 9.16115 0.727521C10.3546 1.05868 11.4445 1.73947 12.315 2.69767C13.2602 3.73446 13.9049 5.05669 14.1675 6.49707H15V10.2552H14.955L12.285 12.9561L8.31 12.4605V11.0811H11.9325L12.54 10.28ZM5.4525 7.81034C5.6775 7.81034 5.895 7.90946 6.0525 8.09117C6.21078 8.26691 6.2996 8.50441 6.2996 8.75193C6.2996 8.99946 6.21078 9.23696 6.0525 9.4127C5.895 9.58615 5.6775 9.68526 5.4525 9.68526C4.98 9.68526 4.5975 9.27229 4.5975 8.75193C4.5975 8.23158 4.98 7.81034 5.4525 7.81034ZM9.54 7.81034C10.0125 7.81034 10.3875 8.23158 10.3875 8.75193C10.3875 9.27229 10.0125 9.68526 9.54 9.68526C9.0675 9.68526 8.685 9.27229 8.685 8.75193C8.685 8.50221 8.77508 8.26271 8.93542 8.08613C9.09577 7.90955 9.31324 7.81034 9.54 7.81034Z" fill="#0D294E"/>
</svg>
