<svg width="15" height="16" viewBox="0 0 15 16" fill="none" xmlns="http://www.w3.org/2000/svg">
<path d="M1.56863 15.5C1.13726 15.5 0.767844 15.3367 0.460393 15.01C0.152942 14.6833 -0.000521544 14.2911 1.3316e-06 13.8333V2.16667C1.3316e-06 1.70833 0.153727 1.31583 0.461178 0.989168C0.768629 0.662501 1.13778 0.499446 1.56863 0.500001H12.549C12.6536 0.500001 12.7516 0.510557 12.8431 0.531668C12.9346 0.552779 13.0261 0.58389 13.1176 0.625001L11.6667 2.16667H1.56863V13.8333H12.549V8.29167L14.1176 6.625V13.8333C14.1176 14.2917 13.9639 14.6842 13.6565 15.0108C13.349 15.3375 12.9799 15.5006 12.549 15.5H1.56863ZM6.68628 12.1667L2.2549 7.45833L3.35294 6.29167L6.68628 9.83333L13.8824 2.1875L15 3.33333L6.68628 12.1667Z" fill="#0D294E"/>
</svg>
