<svg width="15" height="16" viewBox="0 0 15 16" fill="none" xmlns="http://www.w3.org/2000/svg">
<path d="M5.55086 14.2072L6.2 14.4101V13.73V10.9175C6.2 10.7361 6.23535 10.4857 6.38676 10.2172C6.53686 9.95103 6.81837 9.63616 7.35931 9.3492L8.59785 8.69217L7.22306 8.41721C6.67254 8.30711 6.13668 8.25 5.7 8.25C5.09688 8.25 4.28143 8.36305 3.51306 8.58457C2.76142 8.80125 1.96389 9.14715 1.4786 9.66978L1.27227 9.89198L1.37395 10.1777C2.05591 12.0936 3.5988 13.5972 5.55086 14.2072ZM6.4 13.97V14.399L6.82397 14.4642C7.05712 14.5001 7.28499 14.5 7.48446 14.5L7.5 14.5C10.2497 14.5 12.5959 12.7756 13.5452 10.3658L13.6797 10.0244L13.3944 9.79368C12.9639 9.44565 12.368 9.20717 11.8076 9.05498C11.2403 8.90088 10.6522 8.82 10.2 8.82C9.59223 8.82 8.70595 8.96403 7.95895 9.25306C7.58538 9.39761 7.21459 9.59051 6.92878 9.84549C6.64025 10.1029 6.4 10.4611 6.4 10.9175V13.97ZM0.5 8C0.5 4.15017 3.62962 1 7.5 1C8.41925 1 9.3295 1.18106 10.1788 1.53284C11.0281 1.88463 11.7997 2.40024 12.4497 3.05025C13.0998 3.70026 13.6154 4.47194 13.9672 5.32122C14.3189 6.17049 14.5 7.08075 14.5 8C14.5 9.85651 13.7625 11.637 12.4497 12.9497C11.137 14.2625 9.35651 15 7.5 15C6.58075 15 5.67049 14.8189 4.82122 14.4672C3.97194 14.1154 3.20026 13.5998 2.55025 12.9497C1.2375 11.637 0.5 9.85651 0.5 8ZM12.1475 6.7025C12.1475 5.62386 11.2786 4.755 10.2 4.755L8.7525 6.7025H8.2525C8.2525 6.70328 8.2525 6.70406 8.2525 6.70484C8.25312 7.2205 8.45823 7.71491 8.82291 8.07959C9.18814 8.44482 9.68349 8.65 10.2 8.65C11.2786 8.65 12.1475 7.78114 12.1475 6.7025ZM7.97 5.84C7.97 4.58886 6.95114 3.57 5.7 3.57C4.44136 3.57 3.43 4.58136 3.43 5.84C3.43 7.08565 4.44339 8.125 5.7 8.125C6.95661 8.125 7.97 7.08565 7.97 5.84Z" stroke="#0D294E"/>
</svg>
