<svg width="15" height="16" viewBox="0 0 15 16" fill="none" xmlns="http://www.w3.org/2000/svg">
<path d="M7.5 0.5C3.3645 0.5 0 3.8645 0 8V11.1073C0 11.8752 0.67275 12.5 1.5 12.5H2.25C2.44891 12.5 2.63968 12.421 2.78033 12.2803C2.92098 12.1397 3 11.9489 3 11.75V7.89275C3 7.69384 2.92098 7.50307 2.78033 7.36242C2.63968 7.22177 2.44891 7.14275 2.25 7.14275H1.569C1.986 4.24025 4.4835 2 7.5 2C10.5165 2 13.014 4.24025 13.431 7.14275H12.75C12.5511 7.14275 12.3603 7.22177 12.2197 7.36242C12.079 7.50307 12 7.69384 12 7.89275V12.5C12 13.3273 11.3273 14 10.5 14H9V13.25H6V15.5H10.5C12.1545 15.5 13.5 14.1545 13.5 12.5C14.3273 12.5 15 11.8752 15 11.1073V8C15 3.8645 11.6355 0.5 7.5 0.5Z" fill="#0D294E"/>
</svg>
